<svg width="173" height="22" viewBox="0 0 173 22" fill="none" xmlns="http://www.w3.org/2000/svg">
<g style="mix-blend-mode:screen">
<path d="M6.192 10.232C6.176 10.76 6.096 11.192 5.952 11.528C5.824 11.864 5.76 12.48 5.76 13.376C5.76 14.272 5.824 15.104 5.952 15.872C5.952 16.176 5.776 16.48 5.424 16.784C5.312 16.88 5.256 16.96 5.256 17.024C5.256 17.072 5.312 17.16 5.424 17.288C5.536 17.4 5.696 17.456 5.904 17.456C6.112 17.456 6.376 17.376 6.696 17.216C7.032 17.04 7.288 16.872 7.464 16.712L7.728 16.472C8.048 16.152 8.208 15.616 8.208 14.864L8.112 13.832C8.112 13.784 8.224 13.696 8.448 13.568C8.688 13.44 8.808 13.304 8.808 13.16C8.808 12.904 8.64 12.656 8.304 12.416C8.112 12.352 7.968 12.184 7.872 11.912C7.872 11.88 7.928 11.712 8.04 11.408C8.376 10.496 8.544 9.92 8.544 9.68C8.544 9.424 8.528 9.248 8.496 9.152C8.32 8.848 8.2 8.184 8.136 7.16C8.072 6.136 7.968 5.496 7.824 5.24C7.68 4.968 7.48 4.736 7.224 4.544C6.984 4.352 6.776 4.224 6.6 4.16L6.336 4.064C6.224 4.064 6.104 4.104 5.976 4.184C5.848 4.264 5.792 4.352 5.808 4.448C5.824 4.544 5.832 4.904 5.832 5.528C5.832 6.152 5.792 6.768 5.712 7.376V7.4C5.712 7.48 5.8 7.624 5.976 7.832C6.168 8.024 6.264 8.184 6.264 8.312C6.264 8.44 6.144 8.64 5.904 8.912C5.68 9.168 5.568 9.352 5.568 9.464C5.568 9.576 5.672 9.72 5.88 9.896C6.088 10.056 6.192 10.168 6.192 10.232ZM13.128 11.36L13.2 12.416C13.2 12.544 13.176 12.616 13.128 12.632C12.888 12.84 12.768 13.256 12.768 13.88C12.624 14.904 12.488 15.448 12.36 15.512C11.704 15.624 11.376 15.872 11.376 16.256C11.376 16.416 11.448 16.568 11.592 16.712C11.752 16.84 11.832 16.936 11.832 17C11.832 17.064 11.616 17.344 11.184 17.84C10.768 18.32 10.336 18.712 9.888 19.016C9.44 19.32 8.888 19.64 8.232 19.976C7.576 20.296 7.088 20.456 6.768 20.456C6.736 20.456 6.68 20.408 6.6 20.312C6.536 20.216 6.456 20.168 6.36 20.168C6.36 20.168 5.592 20.232 4.056 20.36C3.224 20.36 2.36 20.248 1.464 20.024L0.984 19.904C0.904 19.872 0.824 19.792 0.744 19.664C0.664 19.536 0.624 19.44 0.624 19.376L0.648 19.328C0.92 18.912 1.056 18.064 1.056 16.784V16.736C1.056 16.704 1.176 16.624 1.416 16.496C1.672 16.352 1.8 16.168 1.8 15.944C1.8 15.72 1.656 15.496 1.368 15.272C1.08 15.048 0.936 14.912 0.936 14.864V14.84C1.096 14.168 1.176 12.584 1.176 10.088V9.416C1.176 8.984 1.096 8.592 0.936 8.24V8.192L1.176 7.568C1.208 7.472 1.224 7.288 1.224 7.016L1.128 4.976C1.048 4.48 0.88 4.04 0.624 3.656C0.368 3.256 0.24 3.048 0.24 3.032C0.24 3 0.256 2.944 0.288 2.864C0.4 2.592 0.544 2.408 0.72 2.312C0.896 2.2 1.568 2.008 2.736 1.736C3.92 1.464 4.712 1.328 5.112 1.328C5.528 1.328 6.272 1.424 7.344 1.616C8.432 1.808 9.168 2 9.552 2.192C9.936 2.384 10.496 2.84 11.232 3.56C11.968 4.264 12.336 4.704 12.336 4.88C12.336 4.928 12.264 5.08 12.12 5.336C11.976 5.576 11.904 5.752 11.904 5.864C11.904 5.976 12.056 6.128 12.36 6.32C12.664 6.496 12.832 6.664 12.864 6.824C13.024 7.704 13.12 8.368 13.152 8.816L13.176 9.392C13.176 9.68 13.168 10.08 13.152 10.592L13.128 11.36ZM16.7383 6.392L17.4583 6.464C17.6023 6.464 17.7463 6.44 17.8903 6.392C18.1623 6.728 18.2983 6.96 18.2983 7.088C18.1383 7.664 18.0583 8.336 18.0583 9.104C18.1063 9.392 18.2343 9.536 18.4423 9.536C19.5783 7.856 20.3143 7.016 20.6503 7.016C21.4503 7.064 22.1223 7.368 22.6663 7.928C22.8743 8.568 22.9783 9.216 22.9783 9.872C22.8983 10.976 22.8103 11.568 22.7143 11.648C22.4423 11.728 22.2503 11.768 22.1383 11.768H22.0903C21.5143 11.384 21.0423 11.192 20.6743 11.192C20.3063 11.192 19.7863 11.496 19.1143 12.104C18.4423 12.712 18.1063 13.136 18.1063 13.376C18.1223 13.792 18.2103 14 18.3703 14C18.4983 13.952 18.6263 13.928 18.7543 13.928C18.8823 13.928 18.9463 13.976 18.9463 14.072C18.8663 15.16 18.8263 16.016 18.8263 16.64C18.8263 17.248 18.8503 17.608 18.8983 17.72C18.7863 17.992 18.7303 18.176 18.7303 18.272C18.7303 18.368 18.8023 18.584 18.9463 18.92C19.1063 19.256 19.1863 19.472 19.1863 19.568C19.1863 19.712 18.8023 19.984 18.0343 20.384C17.2823 20.784 16.7623 20.984 16.4743 20.984C16.2023 20.984 15.7303 20.952 15.0583 20.888C14.3863 20.84 14.0503 20.752 14.0503 20.624C14.0503 20.592 14.0983 20.312 14.1943 19.784C14.3063 19.256 14.3623 18.768 14.3623 18.32L14.6263 18.152C14.8023 18.04 14.8903 17.888 14.8903 17.696C14.8903 17.488 14.6743 17.264 14.2423 17.024C14.3223 16.688 14.4023 15.688 14.4823 14.024L14.5063 13.232L14.1463 11.624C14.1463 11.608 14.2023 11.552 14.3143 11.456C14.4263 11.344 14.4823 11.184 14.4823 10.976C14.4823 10.768 14.3783 10.304 14.1703 9.584C13.9623 8.864 13.8583 8.408 13.8583 8.216C13.8583 8.024 13.8823 7.912 13.9303 7.88C13.9783 7.848 14.0743 7.8 14.2183 7.736C14.3623 7.656 14.4823 7.584 14.5783 7.52C14.6743 7.456 14.8183 7.352 15.0103 7.208C15.2183 7.048 15.3943 6.912 15.5383 6.8C15.9543 6.528 16.3543 6.392 16.7383 6.392ZM28.731 10.664C28.699 10.632 28.683 10.528 28.683 10.352C28.683 10.16 28.755 9.88 28.899 9.512C28.899 9.384 28.787 9.32 28.563 9.32L28.179 9.368C27.907 9.496 27.651 9.84 27.411 10.4C27.459 10.704 27.483 11.008 27.483 11.312C27.483 11.6 27.443 11.784 27.363 11.864C27.379 11.944 27.403 12.04 27.435 12.152C27.483 12.264 27.619 12.416 27.843 12.608C28.067 12.8 28.355 12.896 28.707 12.896C28.819 12.896 28.883 12.792 28.899 12.584C28.915 12.376 28.931 12.136 28.947 11.864C28.963 11.592 29.003 11.424 29.067 11.36C29.147 11.28 29.187 11.208 29.187 11.144C29.187 11 29.035 10.84 28.731 10.664ZM32.811 16.304L33.003 18.176C33.003 18.272 32.979 18.368 32.931 18.464C32.899 18.56 32.723 18.784 32.403 19.136C32.099 19.488 31.923 19.736 31.875 19.88C31.843 20.008 31.563 20.168 31.035 20.36C30.523 20.568 30.179 20.672 30.003 20.672C29.843 20.672 29.747 20.656 29.715 20.624C29.699 20.592 29.659 20.504 29.595 20.36C29.467 19.992 29.331 19.808 29.187 19.808C28.995 19.808 28.795 19.928 28.587 20.168C28.395 20.408 28.291 20.528 28.275 20.528C27.347 20.528 26.491 20.368 25.707 20.048C25.419 19.936 25.275 19.84 25.275 19.76C25.275 19.568 24.811 19.064 23.883 18.248L23.403 17.84C23.275 17.728 23.171 17.216 23.091 16.304C23.027 15.392 22.995 14.64 22.995 14.048C22.995 13.44 23.003 13.128 23.019 13.112C23.035 13.096 23.139 13.04 23.331 12.944C23.523 12.832 23.651 12.744 23.715 12.68C23.779 12.616 23.811 12.528 23.811 12.416L23.763 12.128C23.443 11.808 23.283 11.64 23.283 11.624C23.283 11.48 23.459 11.032 23.811 10.28C24.163 9.512 24.467 9 24.723 8.744C26.627 7.64 27.995 7.088 28.827 7.088C30.523 7.104 31.475 7.216 31.683 7.424C32.435 8.464 32.811 9.456 32.811 10.4C32.427 10.576 32.179 10.712 32.067 10.808C31.971 10.904 31.923 11.056 31.923 11.264C31.923 11.472 32.019 11.576 32.211 11.576L32.739 11.48C32.787 11.48 32.811 11.496 32.811 11.528C32.811 12.824 32.435 13.848 31.683 14.6C31.475 14.808 30.947 15.008 30.099 15.2C29.267 15.376 28.739 15.464 28.515 15.464C28.451 15.464 28.275 15.336 27.987 15.08C27.699 14.824 27.539 14.696 27.507 14.696C27.491 14.696 27.411 14.776 27.267 14.936C27.123 15.096 27.051 15.232 27.051 15.344C27.307 16.112 27.611 16.672 27.963 17.024C28.091 17.152 28.379 17.216 28.827 17.216C30.171 17.216 31.163 16.896 31.803 16.256C31.995 16 32.123 15.872 32.187 15.872C32.267 15.872 32.387 15.912 32.547 15.992C32.723 16.056 32.811 16.12 32.811 16.184V16.304ZM39.3332 14.936L39.4052 13.736C39.4052 13.624 39.3892 13.568 39.3572 13.568C39.1492 13.568 38.7892 13.696 38.2772 13.952C37.7812 14.208 37.5332 14.432 37.5332 14.624C37.6612 14.832 37.7252 15 37.7252 15.128C37.7252 15.24 37.7012 15.32 37.6532 15.368C37.4612 15.448 37.3652 15.576 37.3652 15.752C37.3652 15.912 37.4692 16.104 37.6772 16.328C37.9012 16.536 38.0852 16.64 38.2292 16.64C38.3732 16.64 38.6212 16.504 38.9732 16.232C39.3252 15.944 39.5012 15.736 39.5012 15.608L39.4772 15.56C39.3812 15.464 39.3332 15.256 39.3332 14.936ZM43.2692 13.904L43.3892 15.728C43.3892 15.872 43.3732 15.944 43.3412 15.944C42.8132 16.264 42.5492 16.64 42.5492 17.072C42.5492 17.2 42.6692 17.312 42.9092 17.408L43.2692 17.552L43.4612 18.824L43.8932 19.616C43.8932 19.648 43.8212 19.712 43.6772 19.808C43.2612 20.112 42.9412 20.264 42.7172 20.264C42.3492 20.264 41.9332 20.4 41.4692 20.672L41.2532 20.792H41.2052C40.9492 20.792 40.4372 20.648 39.6692 20.36L39.2852 20.216C39.2532 20.184 39.2372 20.112 39.2372 20L39.3092 18.872V18.776L38.9972 18.68C38.9492 18.68 38.8612 18.768 38.7332 18.944C38.5252 19.216 38.0212 19.616 37.2212 20.144L36.8132 20.408C36.3492 20.408 35.8852 20.264 35.4212 19.976C34.9732 19.688 34.6292 19.416 34.3892 19.16C34.1492 18.888 34.0292 18.736 34.0292 18.704C34.0292 18.672 34.0612 18.632 34.1252 18.584C34.2852 18.44 34.3652 18.288 34.3652 18.128C34.3652 17.84 34.0772 17.624 33.5012 17.48L33.2372 17.408C33.2372 16.688 33.3012 15.992 33.4292 15.32C33.5732 14.648 33.7092 14.16 33.8372 13.856L34.0532 13.376C34.2452 13.12 34.8532 12.72 35.8772 12.176C36.9012 11.632 37.7332 11.36 38.3732 11.36C38.4212 11.36 38.5012 11.416 38.6132 11.528C38.7412 11.624 38.8452 11.672 38.9252 11.672C39.0212 11.672 39.1332 11.632 39.2612 11.552C39.5332 11.408 39.6692 11.288 39.6692 11.192C39.6692 10.952 39.5572 10.64 39.3332 10.256C39.1572 10.08 38.5892 9.944 37.6292 9.848L37.1492 9.8C36.8292 9.8 36.3812 9.92 35.8052 10.16C35.2292 10.384 34.9252 10.496 34.8932 10.496C34.8612 10.496 34.7812 10.4 34.6532 10.208C34.5252 10.016 34.4612 9.88 34.4612 9.8C34.4612 9.704 34.6052 9.376 34.8932 8.816C35.1972 8.24 35.4052 7.912 35.5172 7.832C35.7092 7.72 36.3012 7.528 37.2932 7.256C38.2852 6.984 38.9972 6.848 39.4292 6.848C40.1332 7.312 40.7492 7.608 41.2772 7.736C41.8212 7.848 42.3412 8.088 42.8372 8.456C43.3332 8.808 43.5812 9.16 43.5812 9.512C43.5812 9.544 43.5012 9.712 43.3412 10.016C43.1972 10.32 43.1252 10.568 43.1252 10.76C43.1252 10.952 43.1652 11.12 43.2452 11.264L43.3892 11.48C43.3892 12.28 43.3652 12.736 43.3172 12.848C43.1412 13.2 43.0532 13.392 43.0532 13.424L43.2692 13.76V13.904ZM60.8636 11.84L60.8876 12.512C60.8876 12.608 60.7836 12.752 60.5756 12.944C60.3836 13.136 60.2876 13.264 60.2876 13.328C60.2876 13.552 60.3036 13.688 60.3356 13.736C60.3836 13.768 60.4476 13.8 60.5276 13.832C60.7196 13.912 60.8156 13.96 60.8156 13.976C60.8156 14.568 60.7836 15.352 60.7196 16.328C60.6716 17.288 60.6476 17.84 60.6476 17.984C60.6476 18.112 60.7676 18.44 61.0076 18.968L61.3436 19.76C61.3436 19.808 61.2476 19.88 61.0556 19.976C60.8796 20.072 60.7196 20.192 60.5756 20.336C60.4316 20.48 60.1756 20.608 59.8076 20.72C59.4556 20.832 59.1516 20.896 58.8956 20.912L58.4876 20.96C58.1996 20.96 57.7516 20.792 57.1436 20.456C56.5516 20.136 56.2556 19.928 56.2556 19.832L56.4716 18.176L56.8076 17.984C57.0316 17.856 57.1436 17.744 57.1436 17.648C57.1436 17.536 57.1036 17.448 57.0236 17.384C56.9596 17.32 56.8876 17.264 56.8076 17.216C56.5996 17.088 56.4956 17.008 56.4956 16.976C56.5916 16.304 56.6396 15.592 56.6396 14.84C56.6396 14.088 56.6236 13.696 56.5916 13.664C56.4956 13.568 56.4476 13.456 56.4476 13.328C56.4476 13.072 56.6076 12.736 56.9276 12.32L57.0716 12.128C57.0716 11.936 56.8876 11.776 56.5196 11.648C56.1676 11.648 55.8156 11.952 55.4636 12.56C55.1116 13.152 54.9356 13.544 54.9356 13.736L55.0796 14.12C55.0796 14.424 54.9596 14.752 54.7196 15.104C54.7036 15.136 54.6956 15.216 54.6956 15.344C54.6956 15.472 54.7756 15.632 54.9356 15.824C54.8716 16.208 54.8396 16.648 54.8396 17.144C54.8396 17.64 54.8956 18.392 55.0076 19.4V19.424C55.0076 19.472 54.9276 19.52 54.7676 19.568C54.2236 19.744 53.9036 19.88 53.8076 19.976C53.6156 20.168 53.2796 20.304 52.7996 20.384L52.5596 20.408C52.1596 20.408 51.7436 20.328 51.3116 20.168C50.8956 20.024 50.6876 19.896 50.6876 19.784V19.76C50.7996 19.28 50.8556 18.28 50.8556 16.76V16.496C50.8556 16.272 50.7836 16.088 50.6396 15.944C50.6396 15.784 50.7436 15.624 50.9516 15.464C51.1756 15.304 51.2876 15.168 51.2876 15.056C51.2876 14.928 51.1836 14.768 50.9756 14.576C50.7676 14.384 50.6636 14.272 50.6636 14.24C50.6636 13.856 50.7676 13.4 50.9756 12.872C51.1996 12.344 51.3116 12.056 51.3116 12.008C51.3116 11.944 51.2716 11.88 51.1916 11.816C51.1276 11.736 51.0236 11.696 50.8796 11.696C50.6236 11.696 50.3196 11.808 49.9676 12.032C49.8396 12.176 49.6156 12.608 49.2956 13.328C48.9756 14.048 48.8156 14.528 48.8156 14.768C48.8156 15.136 48.9196 15.44 49.1276 15.68C49.1436 15.696 49.1516 15.728 49.1516 15.776L48.9596 16.28C48.9116 16.328 48.8876 16.536 48.8876 16.904L49.0796 19.856C49.0796 19.952 48.7276 20.184 48.0236 20.552C47.3196 20.936 46.8956 21.128 46.7516 21.128C46.2076 21.096 45.5836 20.952 44.8796 20.696L44.5676 20.576L44.7836 19.04L45.0716 18.944C45.2476 18.896 45.3356 18.792 45.3356 18.632C45.3356 18.472 45.2236 18.296 44.9996 18.104C44.7916 17.912 44.6876 17.8 44.6876 17.768L44.7596 17.48C44.9036 16.904 44.9756 16.28 44.9756 15.608L44.8316 11.192C44.8316 11 44.8396 10.896 44.8556 10.88C44.9516 10.816 45.0156 10.768 45.0476 10.736C45.1276 10.688 45.1676 10.536 45.1676 10.28C45.1676 10.008 45.1116 9.704 44.9996 9.368C44.8876 9.016 44.7516 8.768 44.5916 8.624C44.4476 8.464 44.3756 8.136 44.3756 7.64C44.3756 7.544 44.6236 7.376 45.1196 7.136C45.6316 6.88 45.9676 6.752 46.1276 6.752C47.3916 6.928 48.1756 7.168 48.4796 7.472C48.6556 8.064 48.7436 8.416 48.7436 8.528C48.7436 8.624 48.6796 8.848 48.5516 9.2C48.4236 9.536 48.3596 9.752 48.3596 9.848C48.3596 9.944 48.4236 10.064 48.5516 10.208C48.6796 10.336 48.8156 10.4 48.9596 10.4C49.2956 9.616 49.5196 9.168 49.6316 9.056C49.7436 8.944 50.1836 8.696 50.9516 8.312C51.7196 7.912 52.1996 7.712 52.3916 7.712C52.5836 7.712 52.8876 7.832 53.3036 8.072C53.7196 8.312 54.0156 8.52 54.1916 8.696C54.5116 9.208 54.6716 9.536 54.6716 9.68C54.7516 9.728 54.8156 9.752 54.8636 9.752C54.9276 9.752 54.9756 9.736 55.0076 9.704C55.0556 9.656 55.1836 9.4 55.3916 8.936C55.5996 8.472 55.7116 8.232 55.7276 8.216C55.9036 8.04 56.3516 7.8 57.0716 7.496C57.7916 7.192 58.2956 7.04 58.5836 7.04C59.3036 7.28 59.7196 7.456 59.8316 7.568C60.6636 8.8 61.0796 9.504 61.0796 9.68V9.704C60.9356 9.832 60.8636 10.368 60.8636 11.312V11.84ZM67.5669 10.664C67.5349 10.632 67.5189 10.528 67.5189 10.352C67.5189 10.16 67.5909 9.88 67.7349 9.512C67.7349 9.384 67.6229 9.32 67.3989 9.32L67.0149 9.368C66.7429 9.496 66.4869 9.84 66.2469 10.4C66.2949 10.704 66.3189 11.008 66.3189 11.312C66.3189 11.6 66.2789 11.784 66.1989 11.864C66.2149 11.944 66.2389 12.04 66.2709 12.152C66.3189 12.264 66.4549 12.416 66.6789 12.608C66.9029 12.8 67.1909 12.896 67.5429 12.896C67.6549 12.896 67.7189 12.792 67.7349 12.584C67.7509 12.376 67.7669 12.136 67.7829 11.864C67.7989 11.592 67.8389 11.424 67.9029 11.36C67.9829 11.28 68.0229 11.208 68.0229 11.144C68.0229 11 67.8709 10.84 67.5669 10.664ZM71.6469 16.304L71.8389 18.176C71.8389 18.272 71.8149 18.368 71.7669 18.464C71.7349 18.56 71.5589 18.784 71.2389 19.136C70.9349 19.488 70.7589 19.736 70.7109 19.88C70.6789 20.008 70.3989 20.168 69.8709 20.36C69.3589 20.568 69.0149 20.672 68.8389 20.672C68.6789 20.672 68.5829 20.656 68.5509 20.624C68.5349 20.592 68.4949 20.504 68.4309 20.36C68.3029 19.992 68.1669 19.808 68.0229 19.808C67.8309 19.808 67.6309 19.928 67.4229 20.168C67.2309 20.408 67.1269 20.528 67.1109 20.528C66.1829 20.528 65.3269 20.368 64.5429 20.048C64.2549 19.936 64.1109 19.84 64.1109 19.76C64.1109 19.568 63.6469 19.064 62.7189 18.248L62.2389 17.84C62.1109 17.728 62.0069 17.216 61.9269 16.304C61.8629 15.392 61.8309 14.64 61.8309 14.048C61.8309 13.44 61.8389 13.128 61.8549 13.112C61.8709 13.096 61.9749 13.04 62.1669 12.944C62.3589 12.832 62.4869 12.744 62.5509 12.68C62.6149 12.616 62.6469 12.528 62.6469 12.416L62.5989 12.128C62.2789 11.808 62.1189 11.64 62.1189 11.624C62.1189 11.48 62.2949 11.032 62.6469 10.28C62.9989 9.512 63.3029 9 63.5589 8.744C65.4629 7.64 66.8309 7.088 67.6629 7.088C69.3589 7.104 70.3109 7.216 70.5189 7.424C71.2709 8.464 71.6469 9.456 71.6469 10.4C71.2629 10.576 71.0149 10.712 70.9029 10.808C70.8069 10.904 70.7589 11.056 70.7589 11.264C70.7589 11.472 70.8549 11.576 71.0469 11.576L71.5749 11.48C71.6229 11.48 71.6469 11.496 71.6469 11.528C71.6469 12.824 71.2709 13.848 70.5189 14.6C70.3109 14.808 69.7829 15.008 68.9349 15.2C68.1029 15.376 67.5749 15.464 67.3509 15.464C67.2869 15.464 67.1109 15.336 66.8229 15.08C66.5349 14.824 66.3749 14.696 66.3429 14.696C66.3269 14.696 66.2469 14.776 66.1029 14.936C65.9589 15.096 65.8869 15.232 65.8869 15.344C66.1429 16.112 66.4469 16.672 66.7989 17.024C66.9269 17.152 67.2149 17.216 67.6629 17.216C69.0069 17.216 69.9989 16.896 70.6389 16.256C70.8309 16 70.9589 15.872 71.0229 15.872C71.1029 15.872 71.2229 15.912 71.3829 15.992C71.5589 16.056 71.6469 16.12 71.6469 16.184V16.304ZM75.3555 6.392L76.0755 6.464C76.2195 6.464 76.3635 6.44 76.5075 6.392C76.7795 6.728 76.9155 6.96 76.9155 7.088C76.7555 7.664 76.6755 8.336 76.6755 9.104C76.7235 9.392 76.8515 9.536 77.0595 9.536C78.1955 7.856 78.9315 7.016 79.2675 7.016C80.0675 7.064 80.7395 7.368 81.2835 7.928C81.4915 8.568 81.5955 9.216 81.5955 9.872C81.5155 10.976 81.4275 11.568 81.3315 11.648C81.0595 11.728 80.8675 11.768 80.7555 11.768H80.7075C80.1315 11.384 79.6595 11.192 79.2915 11.192C78.9235 11.192 78.4035 11.496 77.7315 12.104C77.0595 12.712 76.7235 13.136 76.7235 13.376C76.7395 13.792 76.8275 14 76.9875 14C77.1155 13.952 77.2435 13.928 77.3715 13.928C77.4995 13.928 77.5635 13.976 77.5635 14.072C77.4835 15.16 77.4435 16.016 77.4435 16.64C77.4435 17.248 77.4675 17.608 77.5155 17.72C77.4035 17.992 77.3475 18.176 77.3475 18.272C77.3475 18.368 77.4195 18.584 77.5635 18.92C77.7235 19.256 77.8035 19.472 77.8035 19.568C77.8035 19.712 77.4195 19.984 76.6515 20.384C75.8995 20.784 75.3795 20.984 75.0915 20.984C74.8195 20.984 74.3475 20.952 73.6755 20.888C73.0035 20.84 72.6675 20.752 72.6675 20.624C72.6675 20.592 72.7155 20.312 72.8115 19.784C72.9235 19.256 72.9795 18.768 72.9795 18.32L73.2435 18.152C73.4195 18.04 73.5075 17.888 73.5075 17.696C73.5075 17.488 73.2915 17.264 72.8595 17.024C72.9395 16.688 73.0195 15.688 73.0995 14.024L73.1235 13.232L72.7635 11.624C72.7635 11.608 72.8195 11.552 72.9315 11.456C73.0435 11.344 73.0995 11.184 73.0995 10.976C73.0995 10.768 72.9955 10.304 72.7875 9.584C72.5795 8.864 72.4755 8.408 72.4755 8.216C72.4755 8.024 72.4995 7.912 72.5475 7.88C72.5955 7.848 72.6915 7.8 72.8355 7.736C72.9795 7.656 73.0995 7.584 73.1955 7.52C73.2915 7.456 73.4355 7.352 73.6275 7.208C73.8355 7.048 74.0115 6.912 74.1555 6.8C74.5715 6.528 74.9715 6.392 75.3555 6.392ZM100.818 7.52L100.962 8.168C100.914 9.576 100.89 10.792 100.89 11.816C100.89 12.824 100.914 13.464 100.962 13.736C100.562 14.136 100.362 14.48 100.362 14.768C100.906 15.12 101.178 15.4 101.178 15.608C101.178 15.656 101.13 15.728 101.034 15.824C100.954 15.904 100.914 16.096 100.914 16.4C100.914 16.688 100.954 17.048 101.034 17.48C101.13 17.896 101.226 18.208 101.322 18.416L101.466 18.752V18.776C101.466 18.856 101.274 19.016 100.89 19.256C100.506 19.496 100.026 19.728 99.4498 19.952C98.8898 20.16 98.4658 20.264 98.1778 20.264C97.8898 20.264 97.2818 20.184 96.3538 20.024C95.4418 19.864 94.9858 19.728 94.9858 19.616C94.9858 19.168 94.9138 18.6 94.7698 17.912C94.6258 17.224 94.4818 16.704 94.3378 16.352L94.1938 16.088C94.1938 16.072 94.2178 16.032 94.2658 15.968C94.4578 15.728 94.5538 15.528 94.5538 15.368C94.5538 15.192 94.4978 15.064 94.3858 14.984C94.2898 14.904 94.1698 14.832 94.0258 14.768C93.8978 14.704 93.8178 14.656 93.7858 14.624C93.7858 14.128 93.5298 13.024 93.0178 11.312L92.7778 10.472C92.6818 10.376 92.4818 10.312 92.1778 10.28C92.1138 10.344 92.0818 10.872 92.0818 11.864L92.1298 15.512L92.1058 15.872C91.9938 15.984 91.8898 16.144 91.7938 16.352C91.7138 16.56 91.6738 16.696 91.6738 16.76C91.6738 16.952 91.9218 17.064 92.4178 17.096C92.4178 17.352 92.4738 17.744 92.5858 18.272C92.6978 18.8 92.7538 19.088 92.7538 19.136C92.7538 19.28 92.6498 19.392 92.4418 19.472C91.7538 19.792 91.1778 20.072 90.7138 20.312L90.3058 20.528C90.2898 20.544 90.2018 20.552 90.0418 20.552C89.8978 20.552 89.5218 20.44 88.9138 20.216C88.3058 20.008 88.0018 19.864 88.0018 19.784C88.0018 18.952 88.1458 18.096 88.4338 17.216L88.5778 16.76C88.5618 16.744 88.5538 16.664 88.5538 16.52L88.6498 13.544C88.6498 13.08 88.6258 12.824 88.5778 12.776C88.5298 12.728 88.5058 12.504 88.5058 12.104L88.5298 11.336C88.5298 11.32 88.5778 11.28 88.6738 11.216C88.9618 11.024 89.1058 10.784 89.1058 10.496C89.1058 10.384 88.9458 10.184 88.6258 9.896L88.4098 9.704C88.3778 9.672 88.3618 9.576 88.3618 9.416L88.4818 8.072L88.2658 6.608C88.2658 6.592 88.3298 6.504 88.4578 6.344C88.5858 6.184 88.6498 6.04 88.6498 5.912C88.6498 5.784 88.4978 5.248 88.1938 4.304C87.8898 3.344 87.7378 2.832 87.7378 2.768C87.7378 2.688 87.9858 2.496 88.4818 2.192C88.9778 1.872 89.2978 1.712 89.4418 1.712H89.5618C90.4418 1.712 90.9698 1.648 91.1458 1.52C91.3698 1.504 91.6418 1.496 91.9618 1.496C93.6258 1.496 94.5938 1.632 94.8658 1.904C95.1538 2.944 95.2978 3.568 95.2978 3.776V3.824C94.9778 4.08 94.8178 4.408 94.8178 4.808C94.8178 4.872 95.0018 4.952 95.3698 5.048C95.7538 5.144 95.9458 5.28 95.9458 5.456L95.8498 6.296C95.8498 6.504 96.0578 7.192 96.4738 8.36C96.9058 9.528 97.1618 10.152 97.2418 10.232C97.3698 10.312 97.4738 10.352 97.5538 10.352C97.6498 10.352 97.6978 10.312 97.6978 10.232V10.016C97.6978 7.632 97.5698 6.296 97.3138 6.008C97.3138 5.944 97.3938 5.808 97.5538 5.6C97.7138 5.376 97.7938 5.224 97.7938 5.144C97.6978 4.792 97.4978 4.464 97.1938 4.16C97.1618 4.128 97.1458 4.072 97.1458 3.992C97.1458 3.912 97.2018 3.76 97.3138 3.536C97.4418 3.296 97.5058 3.144 97.5058 3.08L97.2418 2C97.2418 1.968 97.4018 1.856 97.7218 1.664C98.6498 1.088 99.3938 0.8 99.9538 0.8C100.994 0.831999 101.514 0.927999 101.514 1.088C101.162 3.376 100.986 4.976 100.986 5.888C101.306 6.24 101.466 6.48 101.466 6.608C101.466 6.736 101.354 6.912 101.13 7.136C100.922 7.36 100.818 7.488 100.818 7.52ZM107.712 8.864L111.624 8.648C112.12 8.648 112.368 8.72 112.368 8.864C112.368 9.296 112.184 9.976 111.816 10.904C111.448 11.816 111.16 12.272 110.952 12.272L110.544 12.032C110.272 11.888 109.984 11.816 109.68 11.816C108.528 11.816 107.904 11.864 107.808 11.96C107.712 12.056 107.664 12.784 107.664 14.144C107.664 15.488 107.792 16.288 108.048 16.544C108.304 16.8 108.832 16.928 109.632 16.928C110.432 16.928 110.936 16.824 111.144 16.616C111.368 16.392 111.592 16.096 111.816 15.728C112.056 15.36 112.248 15.048 112.392 14.792C112.536 14.52 112.616 14.384 112.632 14.384C112.776 14.384 113.048 14.584 113.448 14.984C113.864 15.384 114.072 15.68 114.072 15.872C114.072 16.048 113.896 16.704 113.544 17.84C113.208 18.96 112.968 19.592 112.824 19.736C112.808 19.768 112.744 19.784 112.632 19.784L111.264 19.64C110.688 19.64 110.208 19.664 109.824 19.712C109.44 19.744 109.216 19.76 109.152 19.76C109.104 19.76 108.976 19.712 108.768 19.616C108.576 19.52 108.432 19.472 108.336 19.472C108.256 19.472 108.184 19.496 108.12 19.544C108.072 19.592 108.024 19.656 107.976 19.736C107.864 19.928 107.72 20.024 107.544 20.024L106.536 19.904C106.072 19.904 105.568 19.96 105.024 20.072C104.496 20.184 104.112 20.24 103.872 20.24C103.632 20.24 103.336 20.192 102.984 20.096C102.648 20.016 102.48 19.92 102.48 19.808C102.48 19.776 102.52 19.616 102.6 19.328C102.856 18.432 102.984 17.808 102.984 17.456C102.984 17.088 102.968 16.848 102.936 16.736C102.936 16.72 103.032 16.648 103.224 16.52C103.432 16.376 103.536 16.192 103.536 15.968C103.536 15.744 103.392 15.544 103.104 15.368C102.816 15.176 102.672 15.072 102.672 15.056L102.888 14.048C103.032 13.376 103.104 12.92 103.104 12.68C103.104 12.44 103.08 12.256 103.032 12.128C103 12 102.984 11.928 102.984 11.912V11.864C103.112 11.256 103.176 10.584 103.176 9.848C103.176 9.096 103.144 8.4 103.08 7.76C103.032 7.104 103.008 6.768 103.008 6.752C103.008 6.736 103.088 6.664 103.248 6.536C103.408 6.408 103.488 6.264 103.488 6.104C103.488 5.928 103.408 5.688 103.248 5.384C102.8 4.472 102.576 3.416 102.576 2.216C102.576 2.04 103.128 1.888 104.232 1.76C105.336 1.616 106.392 1.544 107.4 1.544C107.608 1.544 107.784 1.632 107.928 1.808C108.072 1.984 108.192 2.072 108.288 2.072C108.4 2.072 108.872 1.992 109.704 1.832C110.552 1.672 111.216 1.592 111.696 1.592C112.864 1.592 113.448 1.728 113.448 2C113.448 2.464 113.352 3.088 113.16 3.872C112.968 4.64 112.824 5.072 112.728 5.168C112.568 5.36 112.168 5.456 111.528 5.456C111.464 5.456 111.376 5.344 111.264 5.12C111.168 4.88 110.976 4.648 110.688 4.424C110.416 4.184 110.112 4.064 109.776 4.064C109.44 4.064 109.08 4.136 108.696 4.28C108.312 4.408 108.072 4.52 107.976 4.616C107.88 4.712 107.832 5.12 107.832 5.84C107.832 6.544 107.872 7.072 107.952 7.424V7.496C107.952 7.608 107.792 7.712 107.472 7.808C107.152 7.904 106.992 8.216 106.992 8.744C106.992 8.824 107.232 8.864 107.712 8.864ZM123.62 1.952L126.523 1.76C126.652 1.76 126.724 1.768 126.74 1.784C126.836 1.88 127.004 2.48 127.244 3.584C127.5 4.672 127.628 5.528 127.628 6.152C127.628 6.28 127.388 6.512 126.908 6.848C126.444 7.168 126.06 7.328 125.756 7.328C125.724 7.328 125.668 7.2 125.588 6.944C125.316 6.064 124.956 5.4 124.508 4.952C123.932 4.744 123.508 4.64 123.236 4.64C122.964 4.64 122.796 4.656 122.732 4.688C122.684 4.704 122.604 4.76 122.492 4.856C122.396 4.952 122.348 5.08 122.348 5.24C123.084 5.576 123.452 5.8 123.452 5.912C123.372 6.952 123.332 7.976 123.332 8.984C122.948 9.304 122.756 9.512 122.756 9.608C122.756 9.816 122.82 9.984 122.948 10.112C123.076 10.24 123.204 10.328 123.332 10.376C123.46 10.424 123.524 10.456 123.524 10.472C123.428 12.2 123.38 13.648 123.38 14.816C123.38 15.968 123.412 16.736 123.476 17.12C123.844 18.032 124.028 18.688 124.028 19.088C124.028 19.216 123.836 19.368 123.452 19.544C123.084 19.72 122.78 19.84 122.54 19.904C122.14 20 121.788 20.2 121.484 20.504C120.62 20.504 119.9 20.464 119.324 20.384C118.764 20.304 118.412 20.224 118.268 20.144L118.076 20.024L118.484 18.56C118.516 18.512 118.532 18.264 118.532 17.816L118.508 15.992C118.508 15.736 118.516 15.608 118.532 15.608C118.724 15.608 118.916 15.4 119.108 14.984C119.108 14.904 118.964 14.72 118.676 14.432C118.404 14.144 118.268 13.968 118.268 13.904L118.628 13.208C118.66 13.08 118.676 12.904 118.676 12.68L118.604 10.448C118.604 10.16 118.628 9.992 118.676 9.944C118.724 9.896 118.748 9.84 118.748 9.776C118.748 9.696 118.66 9.568 118.484 9.392C118.308 9.2 118.22 9.032 118.22 8.888L118.604 8.024C118.668 7.832 118.7 7.216 118.7 6.176C118.7 5.136 118.684 4.616 118.652 4.616C118.204 4.616 117.78 4.872 117.38 5.384C116.98 5.88 116.692 6.384 116.516 6.896L116.252 7.664C115.932 7.664 115.604 7.576 115.268 7.4C114.932 7.224 114.676 7.048 114.5 6.872C114.324 6.68 114.236 6.544 114.236 6.464C114.236 6.368 114.396 5.568 114.716 4.064C115.052 2.544 115.26 1.776 115.34 1.76C116.092 1.84 116.572 1.912 116.78 1.976C118.78 1.784 119.916 1.688 120.188 1.688L121.243 1.808C121.884 1.552 122.244 1.424 122.324 1.424C122.58 1.536 122.772 1.656 122.9 1.784C123.028 1.896 123.268 1.952 123.62 1.952ZM137.264 12.056C137.232 12.04 137.208 12.032 137.192 12.032C136.648 11.808 135.976 11.696 135.176 11.696C134.392 11.696 133.768 11.776 133.304 11.936C132.568 12.192 132.2 12.528 132.2 12.944C132.2 13.152 132.4 13.256 132.8 13.256C132.864 13.256 133.008 13.24 133.232 13.208H133.256C133.32 13.208 133.352 13.376 133.352 13.712L133.328 14.264C133.248 15.368 133.208 16.168 133.208 16.664C133.208 17.144 133.28 17.624 133.424 18.104L133.64 18.824C133.64 18.872 133.616 18.912 133.568 18.944C133.44 18.992 133.176 19.144 132.776 19.4C131.8 20.024 131.096 20.336 130.664 20.336C130.248 20.336 129.856 20.28 129.488 20.168C129.136 20.072 128.856 19.968 128.648 19.856C128.44 19.744 128.336 19.664 128.336 19.616C128.336 19.536 128.416 19.272 128.576 18.824C128.752 18.36 128.84 17.936 128.84 17.552C128.84 17.472 128.76 17.384 128.6 17.288C128.44 17.176 128.36 17.048 128.36 16.904C128.36 16.76 128.408 16.56 128.504 16.304C128.616 16.048 128.672 15.912 128.672 15.896V15.8L128.648 14.6C128.648 14.392 128.664 13.968 128.696 13.328V13.232L128.72 12.8C128.72 12.464 128.688 12.128 128.624 11.792C128.576 11.456 128.552 11.28 128.552 11.264C128.552 11.248 128.68 11.128 128.936 10.904C129.192 10.68 129.32 10.504 129.32 10.376C129.32 10.248 129.296 10.152 129.248 10.088C129.2 10.008 129.136 9.952 129.056 9.92C128.992 9.872 128.928 9.832 128.864 9.8C128.688 9.72 128.6 9.672 128.6 9.656C128.68 8.856 128.72 8.304 128.72 8L128.648 5.36C128.84 5.104 128.936 4.944 128.936 4.88C128.936 4.816 128.864 4.712 128.72 4.568C128.576 4.488 128.44 4.168 128.312 3.608C128.2 3.048 128.144 2.632 128.144 2.36C128.144 2.248 128.632 2.136 129.608 2.024C130.584 1.896 131.072 1.784 131.072 1.688C131.152 1.64 131.256 1.616 131.384 1.616C131.512 1.616 131.872 1.648 132.464 1.712C133.056 1.776 133.384 1.84 133.448 1.904L133.544 2.144C133.608 2.288 133.72 2.36 133.88 2.36C134.04 2.36 134.48 2.264 135.2 2.072C135.92 1.88 136.56 1.784 137.12 1.784L138.056 1.592C138.872 1.752 139.304 1.848 139.352 1.88C139.384 1.944 139.4 2.104 139.4 2.36C139.4 2.6 139.368 2.896 139.304 3.248V3.296C138.936 4.768 138.664 5.592 138.488 5.768C138.312 5.944 137.96 6.032 137.432 6.032C136.92 6.016 136.664 5.92 136.664 5.744V5.672C136.664 5.272 136.544 4.96 136.304 4.736C136.064 4.496 135.736 4.376 135.32 4.376C134.92 4.376 134.432 4.504 133.856 4.76C133.28 5.016 132.992 5.216 132.992 5.36C132.992 5.392 133.072 5.48 133.232 5.624C133.408 5.752 133.496 5.872 133.496 5.984C133.496 6.096 133.464 6.192 133.4 6.272C133.304 6.416 133.256 6.808 133.256 7.448C133.256 8.088 133.296 8.448 133.376 8.528C133.456 8.608 133.744 8.648 134.24 8.648L137.792 8.552C138.096 8.552 138.264 8.576 138.296 8.624C138.344 8.656 138.368 8.888 138.368 9.32C138.368 9.752 138.232 10.32 137.96 11.024C137.688 11.712 137.464 12.056 137.288 12.056H137.264ZM151.163 16.808L151.235 17.264C151.235 17.488 151.099 17.904 150.827 18.512C150.571 19.104 150.419 19.432 150.371 19.496C150.195 19.656 149.787 19.736 149.147 19.736C147.931 19.736 146.819 19.672 145.811 19.544L145.259 19.472C144.987 19.472 144.755 19.568 144.563 19.76C144.371 19.936 144.083 20.024 143.699 20.024L141.539 19.88C140.739 19.88 140.339 19.784 140.339 19.592V19.544C140.419 19.272 140.459 18.84 140.459 18.248L140.339 16.232V16.208C140.339 16.128 140.491 15.976 140.795 15.752C141.099 15.528 141.251 15.328 141.251 15.152C141.251 14.976 141.179 14.808 141.035 14.648C140.891 14.488 140.667 14.36 140.363 14.264C140.331 14.168 140.315 14.072 140.315 13.976L140.459 13.016C140.491 12.792 140.507 12.584 140.507 12.392L140.291 8.552C140.291 8.504 140.355 8.432 140.483 8.336C140.723 8.16 140.843 8.008 140.843 7.88L140.723 7.352C140.627 7.256 140.507 7.176 140.363 7.112C140.123 7.032 140.003 6.952 140.003 6.872C140.003 6.776 140.091 6.504 140.267 6.056C140.459 5.608 140.555 5.328 140.555 5.216L140.147 3.104C140.147 2.976 140.491 2.664 141.179 2.168C141.867 1.656 142.435 1.4 142.883 1.4C143.347 1.4 143.931 1.456 144.635 1.568C145.355 1.68 145.715 1.792 145.715 1.904C145.715 2.096 145.651 2.608 145.523 3.44C145.411 4.256 145.315 4.688 145.235 4.736C144.851 4.928 144.659 5.136 144.659 5.36C144.659 5.568 144.779 5.784 145.019 6.008C145.275 6.216 145.403 6.352 145.403 6.416V6.44C145.275 8.216 145.211 9.44 145.211 10.112C145.211 10.768 145.219 11.152 145.235 11.264C145.267 11.36 145.347 11.48 145.475 11.624C145.619 11.768 145.691 11.88 145.691 11.96C145.691 12.04 145.603 12.208 145.427 12.464C145.267 12.704 145.187 12.928 145.187 13.136C145.235 13.632 145.259 14.024 145.259 14.312C145.259 14.584 145.243 14.736 145.211 14.768C144.651 15.328 144.371 15.808 144.371 16.208C144.371 16.288 144.411 16.4 144.491 16.544C144.571 16.688 144.635 16.76 144.683 16.76C144.747 16.76 144.931 16.648 145.235 16.424C145.539 16.184 145.771 16.064 145.931 16.064H146.003C146.547 16.176 147.059 16.232 147.539 16.232C148.019 16.232 148.331 16.16 148.475 16.016C149.019 15.472 149.451 14.832 149.771 14.096C149.851 13.904 149.915 13.808 149.963 13.808C150.411 13.808 150.819 14 151.187 14.384C151.571 14.768 151.763 15.088 151.763 15.344C151.667 15.84 151.539 16.184 151.379 16.376C151.235 16.552 151.163 16.696 151.163 16.808ZM157.115 15.128C157.083 15.432 157.067 15.96 157.067 16.712C157.067 17.464 157.283 18.272 157.715 19.136C157.715 19.216 157.619 19.32 157.427 19.448C157.251 19.576 157.123 19.672 157.043 19.736C156.963 19.784 156.851 19.864 156.707 19.976C156.579 20.088 156.475 20.176 156.395 20.24C156.171 20.416 156.011 20.504 155.915 20.504C155.451 20.504 154.683 20.416 153.611 20.24C152.555 20.064 152.027 19.888 152.027 19.712C152.027 19.616 152.067 19.216 152.147 18.512C152.227 17.808 152.275 17.416 152.291 17.336L152.459 17C152.603 15.416 152.675 14.376 152.675 13.88C152.675 13.384 152.651 12.768 152.603 12.032C152.571 11.296 152.531 10.72 152.483 10.304C152.451 9.872 152.435 9.648 152.435 9.632C152.435 9.6 152.499 9.544 152.627 9.464C152.979 9.224 153.155 8.968 153.155 8.696C153.155 8.424 153.019 8.224 152.747 8.096C152.491 7.952 152.363 7.856 152.363 7.808C152.363 7.648 152.403 7.28 152.483 6.704C152.563 6.112 152.603 5.656 152.603 5.336C152.603 5.016 152.499 4.568 152.291 3.992C152.099 3.416 152.003 3.088 152.003 3.008C152.003 2.88 152.371 2.592 153.107 2.144C153.859 1.68 154.387 1.448 154.691 1.448C155.011 1.448 155.531 1.552 156.251 1.76C156.971 1.952 157.331 2.168 157.331 2.408C157.331 2.584 157.243 3.024 157.067 3.728C156.891 4.432 156.803 4.832 156.803 4.928C156.803 5.024 156.851 5.112 156.947 5.192C157.059 5.256 157.115 5.336 157.115 5.432C156.939 7.256 156.851 8.488 156.851 9.128C156.851 9.752 156.859 10.12 156.875 10.232C156.891 10.328 156.939 10.44 157.019 10.568C157.099 10.696 157.139 10.824 157.139 10.952C157.139 10.968 157.011 11.08 156.755 11.288C156.515 11.496 156.395 11.68 156.395 11.84C156.395 12 156.531 12.192 156.803 12.416C157.075 12.64 157.211 12.872 157.211 13.112C157.163 13.432 157.131 13.608 157.115 13.64C157.115 13.656 156.995 13.752 156.755 13.928C156.515 14.088 156.395 14.2 156.395 14.264V14.432C156.395 14.64 156.555 14.8 156.875 14.912C157.035 14.976 157.115 15.048 157.115 15.128ZM171.032 4.592C171.128 4.848 171.168 5.016 171.152 5.096C171.152 5.176 171.136 5.24 171.104 5.288C171.088 5.336 170.928 5.456 170.624 5.648C170.336 5.824 170.192 6.008 170.192 6.2C168.784 9.464 168.08 11.24 168.08 11.528C168.128 11.944 168.176 12.176 168.224 12.224C168.272 12.256 168.344 12.304 168.44 12.368C168.888 13.728 169.2 14.584 169.376 14.936C169.296 15.176 169.224 15.32 169.16 15.368C169.176 15.688 169.28 15.856 169.472 15.872C169.904 15.92 170.12 15.984 170.12 16.064C170.2 16.448 170.424 17.032 170.792 17.816C171.16 18.6 171.424 19.112 171.584 19.352V19.4C171.584 19.56 171.232 19.776 170.528 20.048L170.192 20.168C169.632 20.696 169.272 20.96 169.112 20.96C167.88 20.96 166.928 20.816 166.256 20.528L165.92 20.408L165.8 19.136L165.968 18.824C165.968 18.568 165.752 18.392 165.32 18.296C165.224 18.296 165.176 18.216 165.176 18.056L165.368 17.216C165.368 16.96 165.232 16.512 164.96 15.872L164.84 15.536C164.744 15.44 164.624 15.392 164.48 15.392H164.408C164.344 15.392 164.096 15.832 163.664 16.712C163.248 17.592 163.04 18.088 163.04 18.2L162.776 20.096C162.776 20.208 162.568 20.336 162.152 20.48C161.752 20.64 161.456 20.72 161.264 20.72C160.912 20.72 160.48 20.808 159.968 20.984L159.704 21.08C159.384 21.08 158.968 20.968 158.456 20.744C157.96 20.536 157.712 20.368 157.712 20.24L158.72 18.272C158.88 18.272 159 18.2 159.08 18.056C159.592 17.032 160.232 15.36 161 13.04L161.408 11.792C161.408 11.744 161.432 11.72 161.48 11.72C161.544 11.72 161.656 11.816 161.816 12.008C161.976 12.184 162.112 12.368 162.224 12.56L162.416 12.848C162.544 12.848 162.672 12.656 162.8 12.272C162.8 11.872 162.528 11.184 161.984 10.208C161.44 9.216 161.168 8.688 161.168 8.624C161.168 8.56 161.232 8.448 161.36 8.288C161.488 8.128 161.552 8.016 161.552 7.952C161.552 7.888 161.504 7.784 161.408 7.64C161.312 7.48 161.232 7.384 161.168 7.352C161.104 7.32 161.016 7.304 160.904 7.304C160.808 7.288 160.72 7.28 160.64 7.28C160.56 7.28 160.52 7.264 160.52 7.232C160.52 6.864 160.208 6.176 159.584 5.168C158.976 4.144 158.672 3.592 158.672 3.512C158.672 3.464 158.832 3.312 159.152 3.056C159.488 2.8 159.872 2.552 160.304 2.312C160.752 2.056 161.096 1.928 161.336 1.928C163.032 1.944 163.888 2.016 163.904 2.144C164.416 3.552 164.728 4.304 164.84 4.4C164.856 4.416 164.864 4.456 164.864 4.52L164.624 5.312C164.624 5.52 164.736 5.624 164.96 5.624C165.088 5.624 165.16 5.648 165.176 5.696C165.56 7.056 165.808 7.736 165.92 7.736C166.112 7.72 166.256 7.664 166.352 7.568C167.024 6.032 167.36 4.992 167.36 4.448C167.28 3.648 167.24 3.144 167.24 2.936C167.24 2.728 167.248 2.624 167.264 2.624C168.352 1.808 169.224 1.4 169.88 1.4C171.384 1.72 172.136 1.96 172.136 2.12C172.136 2.232 171.952 2.632 171.584 3.32C171.216 3.992 171.032 4.416 171.032 4.592Z" fill="#E50914"/>
</g>
</svg>
